<svg width="32" height="32" viewBox="0 0 32 32" fill="none" xmlns="http://www.w3.org/2000/svg">
  <circle cx="16" cy="16" r="16" fill="#39FF14"/>
  <path d="M23.5 11.134c0-1.374-1.12-2.494-2.494-2.494H10.994C9.62 8.64 8.5 9.76 8.5 11.134v9.732C8.5 22.24 9.62 23.36 10.994 23.36h10.012c1.374 0 2.494-1.12 2.494-2.494v-9.732zm-2.494 0v9.732H10.994v-9.732h10.012zm-5.006 1.247c-1.374 0-2.494 1.12-2.494 2.494 0 1.374 1.12 2.494 2.494 2.494 1.374 0 2.494-1.12 2.494-2.494 0-1.374-1.12-2.494-2.494-2.494z" fill="#000"/>
</svg>
